<?xml version="1.0" standalone="no"?>
<!DOCTYPE svg PUBLIC "-//W3C//DTD SVG 20010904//EN"
 "http://www.w3.org/TR/2001/REC-SVG-20010904/DTD/svg10.dtd">
<svg version="1.0" xmlns="http://www.w3.org/2000/svg"
 width="200.000000pt" height="173.000000pt" viewBox="0 0 200.000000 173.000000"
 preserveAspectRatio="xMidYMid meet">

<g transform="translate(0.000000,173.000000) scale(0.100000,-0.100000)"
fill="#fff" stroke="none">
<path d="M175 1675 c-62 -31 -60 -3 -63 -665 -1 -333 0 -615 3 -628 l5 -22
883 2 882 3 3 77 3 78 -273 2 -273 3 -3 57 -3 58 -49 0 c-40 0 -56 5 -82 29
-28 25 -32 35 -37 101 l-6 73 -52 20 c-30 11 -53 26 -53 34 0 8 18 46 40 86
35 65 39 80 39 139 -2 201 133 366 333 409 35 8 116 10 236 6 l182 -5 0 35 c0
46 -24 89 -60 108 -43 22 -1609 22 -1655 0z m595 -200 c11 -13 1 -43 -60 -180
-40 -90 -79 -174 -87 -185 -17 -24 -48 -26 -57 -3 -6 15 131 339 156 371 14
16 33 15 48 -3z m-230 -54 c8 -17 1 -28 -56 -77 l-66 -58 28 -24 c106 -89 119
-113 73 -127 -20 -7 -47 12 -148 102 -54 48 -53 51 50 139 78 67 102 76 119
45z m381 -48 c61 -51 79 -72 77 -88 -3 -24 -151 -155 -174 -155 -7 0 -18 9
-24 20 -12 22 -5 32 77 101 l43 36 -65 57 c-56 49 -64 60 -55 77 6 10 17 19
26 19 8 0 51 -30 95 -67z m83 -405 c8 -14 6 -21 -9 -32 -17 -13 -70 -15 -323
-16 -299 0 -342 4 -342 33 0 35 19 37 344 35 289 -3 320 -5 330 -20z m-3 -174
c9 -11 10 -20 2 -32 -9 -15 -43 -17 -333 -17 -290 0 -324 2 -333 17 -8 12 -7
21 2 32 12 14 53 16 331 16 278 0 319 -2 331 -16z m-2 -188 c6 -7 9 -21 5 -30
-5 -14 -40 -16 -334 -16 -282 0 -329 2 -334 15 -3 8 -3 22 0 30 5 13 51 15
329 15 261 0 325 -3 334 -14z"/>
<path d="M1432 1451 c-80 -28 -140 -84 -186 -173 -36 -71 -39 -83 -38 -160 0
-73 -3 -89 -29 -134 -16 -28 -29 -56 -29 -61 0 -5 19 -16 43 -24 l42 -16 3
-78 c2 -44 8 -85 14 -92 7 -8 35 -13 78 -13 77 0 80 -3 80 -76 l0 -44 240 0
240 0 0 439 c0 391 -2 440 -16 445 -9 3 -100 6 -202 6 -154 -1 -196 -4 -240
-19z m196 -143 c14 -29 26 -35 37 -18 12 19 41 10 74 -24 29 -30 33 -39 27
-69 -5 -29 -3 -35 19 -45 22 -10 25 -18 25 -67 0 -50 -2 -55 -26 -61 -23 -6
-25 -10 -19 -44 5 -31 2 -42 -20 -68 -27 -32 -62 -41 -81 -22 -11 11 -25 3
-40 -25 -9 -16 -22 -20 -59 -20 -37 0 -50 4 -59 20 -15 28 -29 36 -40 25 -20
-20 -54 -9 -85 25 -33 38 -37 50 -21 60 20 12 10 43 -15 49 -23 6 -25 11 -25
61 0 49 3 57 25 67 22 10 24 16 19 47 -5 32 -1 40 30 70 32 31 38 33 61 23 28
-13 45 -9 45 12 0 25 25 37 70 34 38 -3 47 -7 58 -30z"/>
<path d="M1523 1145 c-27 -19 -37 -59 -22 -88 16 -30 28 -37 65 -37 52 0 83
53 59 99 -22 43 -63 53 -102 26z"/>
<path d="M60 270 c-46 -46 3 -170 83 -209 43 -21 50 -21 857 -21 806 0 814 0
857 21 76 37 129 164 88 209 -18 20 -34 20 -942 20 -910 0 -923 0 -943 -20z
m1028 -79 c8 -4 12 -19 10 -32 -3 -23 -7 -24 -95 -27 -81 -2 -93 -1 -102 16
-11 20 -4 36 19 45 24 9 154 8 168 -2z"/>
</g>
</svg>
